<svg width="483" height="563" viewBox="0 0 483 563" fill="none" xmlns="http://www.w3.org/2000/svg">
<g filter="url(#filter0_d_3_18)">
<path d="M221 119.5V16H264V119.5H438.5V162.5L264 162V547H221V162H45.5V119.5H221Z" stroke="#FFFEFE" shape-rendering="crispEdges"/>
</g>
<g filter="url(#filter1_f_3_18)">
<path d="M221 119.5V16H264V119.5H438.5V162.5L264 162V547H221V162H45.5V119.5H221Z" stroke="#FFFEFE"/>
</g>
<rect x="10" y="178" width="465" height="69" fill="black"/>
<g filter="url(#filter2_f_3_18)">
<path d="M16.048 242.64L15.3014 243.305L15.3088 243.313L16.048 242.64ZM12.112 226.224V225.224H11.112V226.224H12.112ZM22.096 226.224H23.096V225.224H22.096V226.224ZM31.6 235.824L30.8502 235.162L30.8474 235.165L31.6 235.824ZM31.12 223.248L30.258 223.755L30.2648 223.766L31.12 223.248ZM24.016 215.472L23.3544 216.222L23.3595 216.226L24.016 215.472ZM14.896 205.104L14.0201 205.587L14.0244 205.594L14.896 205.104ZM16.336 182.256L17.0671 182.938L17.0745 182.93L16.336 182.256ZM39.472 182.256L38.7174 182.912L38.725 182.921L38.7328 182.929L39.472 182.256ZM43.408 197.52V198.52H44.408V197.52H43.408ZM33.424 197.52H32.424V198.52H33.424V197.52ZM32.08 189.072L31.3081 189.708L31.3176 189.719L31.3274 189.73L32.08 189.072ZM24.784 200.688L23.9288 201.206L23.9345 201.216L23.9403 201.225L24.784 200.688ZM31.984 208.368L31.3275 209.122L31.3278 209.123L31.984 208.368ZM41.104 218.832L40.2207 219.301L40.2207 219.301L41.104 218.832ZM39.472 242.544L38.7414 241.861L38.7335 241.87L39.472 242.544ZM27.664 245.96C22.7322 245.96 19.1669 244.578 16.7872 241.967L15.3088 243.313C18.1771 246.462 22.3558 247.96 27.664 247.96V245.96ZM16.7945 241.975C14.3868 239.273 13.112 235.352 13.112 230.064H11.112C11.112 235.656 12.4612 240.119 15.3015 243.305L16.7945 241.975ZM13.112 230.064V226.224H11.112V230.064H13.112ZM12.112 227.224H22.096V225.224H12.112V227.224ZM21.096 226.224V230.832H23.096V226.224H21.096ZM21.096 230.832C21.096 233.123 21.5725 235.028 22.6976 236.37C23.8511 237.746 25.539 238.36 27.568 238.36V236.36C25.949 236.36 24.9009 235.886 24.2304 235.086C23.5315 234.252 23.096 232.893 23.096 230.832H21.096ZM27.568 238.36C29.5514 238.36 31.211 237.787 32.3526 236.483L30.8474 235.165C30.197 235.909 29.1686 236.36 27.568 236.36V238.36ZM32.3498 236.486C33.5461 235.13 34.04 233.107 34.04 230.64H32.04C32.04 232.909 31.5739 234.342 30.8502 235.162L32.3498 236.486ZM34.04 230.64C34.04 227.667 33.3626 225.019 31.9752 222.73L30.2648 223.766C31.4374 225.701 32.04 227.981 32.04 230.64H34.04ZM31.9819 222.741C30.6197 220.425 28.155 217.749 24.6725 214.718L23.3595 216.226C26.789 219.211 29.0603 221.719 30.2581 223.755L31.9819 222.741ZM24.6776 214.722C20.3626 210.915 17.4166 207.545 15.7676 204.614L14.0244 205.594C15.8314 208.807 18.9654 212.349 23.3544 216.222L24.6776 214.722ZM15.7718 204.621C14.1325 201.646 13.304 198.295 13.304 194.544H11.304C11.304 198.601 12.2035 202.29 14.0202 205.587L15.7718 204.621ZM13.304 194.544C13.304 189.395 14.6047 185.577 17.0671 182.938L15.6049 181.574C12.6913 184.695 11.304 189.069 11.304 194.544H13.304ZM17.0745 182.93C19.5225 180.249 23.1241 178.84 28.048 178.84V176.84C22.7319 176.84 18.5255 178.375 15.5975 181.582L17.0745 182.93ZM28.048 178.84C32.906 178.84 36.4001 180.247 38.7174 182.912L40.2266 181.6C37.4239 178.377 33.302 176.84 28.048 176.84V178.84ZM38.7328 182.929C41.1326 185.563 42.408 189.446 42.408 194.736H44.408C44.408 189.146 43.0595 184.709 40.2112 181.583L38.7328 182.929ZM42.408 194.736V197.52H44.408V194.736H42.408ZM43.408 196.52H33.424V198.52H43.408V196.52ZM34.424 197.52V194.064H32.424V197.52H34.424ZM34.424 194.064C34.424 191.673 33.9668 189.71 32.8326 188.413L31.3274 189.73C31.9852 190.482 32.424 191.847 32.424 194.064H34.424ZM32.8519 188.436C31.7234 187.066 30.0967 186.44 28.144 186.44V188.44C29.6473 188.44 30.6446 188.902 31.3081 189.708L32.8519 188.436ZM28.144 186.44C26.1721 186.44 24.5303 187.05 23.4111 188.414C22.3229 189.739 21.864 191.617 21.864 193.872H23.864C23.864 191.839 24.2851 190.501 24.9569 189.682C25.5977 188.902 26.5959 188.44 28.144 188.44V186.44ZM21.864 193.872C21.864 196.49 22.5556 198.941 23.9288 201.206L25.6392 200.17C24.4524 198.211 23.864 196.118 23.864 193.872H21.864ZM23.9403 201.225C25.3622 203.459 27.8485 206.094 31.3275 209.122L32.6405 207.614C29.2075 204.626 26.8938 202.141 25.6277 200.151L23.9403 201.225ZM31.3278 209.123C35.7034 212.927 38.6395 216.321 40.2207 219.301L41.9873 218.363C40.2405 215.071 37.0966 211.489 32.6402 207.613L31.3278 209.123ZM40.2207 219.301C41.7948 222.267 42.6 225.781 42.6 229.872H44.6C44.6 225.515 43.7412 221.669 41.9873 218.363L40.2207 219.301ZM42.6 229.872C42.6 235.216 41.2653 239.161 38.7415 241.861L40.2025 243.227C43.1827 240.039 44.6 235.536 44.6 229.872H42.6ZM38.7335 241.87C36.2878 244.548 32.6563 245.96 27.664 245.96V247.96C33.0397 247.96 37.2802 246.428 40.2105 243.218L38.7335 241.87ZM49.6548 178.8V177.8H48.6548V178.8H49.6548ZM78.4548 178.8H79.4548V177.8H78.4548V178.8ZM78.4548 188.4V189.4H79.4548V188.4H78.4548ZM60.2148 188.4V187.4H59.2148V188.4H60.2148ZM60.2148 206.16H59.2148V207.16H60.2148V206.16ZM74.7108 206.16H75.7108V205.16H74.7108V206.16ZM74.7108 215.76V216.76H75.7108V215.76H74.7108ZM60.2148 215.76V214.76H59.2148V215.76H60.2148ZM60.2148 236.4H59.2148V237.4H60.2148V236.4ZM78.4548 236.4H79.4548V235.4H78.4548V236.4ZM78.4548 246V247H79.4548V246H78.4548ZM49.6548 246H48.6548V247H49.6548V246ZM49.6548 179.8H78.4548V177.8H49.6548V179.8ZM77.4548 178.8V188.4H79.4548V178.8H77.4548ZM78.4548 187.4H60.2148V189.4H78.4548V187.4ZM59.2148 188.4V206.16H61.2148V188.4H59.2148ZM60.2148 207.16H74.7108V205.16H60.2148V207.16ZM73.7108 206.16V215.76H75.7108V206.16H73.7108ZM74.7108 214.76H60.2148V216.76H74.7108V214.76ZM59.2148 215.76V236.4H61.2148V215.76H59.2148ZM60.2148 237.4H78.4548V235.4H60.2148V237.4ZM77.4548 236.4V246H79.4548V236.4H77.4548ZM78.4548 245H49.6548V247H78.4548V245ZM50.6548 246V178.8H48.6548V246H50.6548ZM82.1298 246H81.1298V246.828L81.9426 246.982L82.1298 246ZM82.1298 236.4L82.3723 235.43L81.1298 235.119V236.4H82.1298ZM90.2898 235.248L90.9969 235.955L91.0076 235.944L91.018 235.933L90.2898 235.248ZM91.8258 178.8V177.8H90.8258V178.8H91.8258ZM102.386 178.8H103.386V177.8H102.386V178.8ZM98.5458 242.352L97.8216 241.662L97.813 241.672L98.5458 242.352ZM87.0258 245.384C85.1455 245.384 83.5801 245.258 82.3169 245.018L81.9426 246.982C83.3674 247.254 85.066 247.384 87.0258 247.384V245.384ZM83.1298 246V236.4H81.1298V246H83.1298ZM81.8872 237.37C83.0052 237.65 84.2406 237.784 85.5858 237.784V235.784C84.3709 235.784 83.3023 235.662 82.3723 235.43L81.8872 237.37ZM85.5858 237.784C87.8415 237.784 89.7141 237.238 90.9969 235.955L89.5826 234.541C88.8174 235.306 87.554 235.784 85.5858 235.784V237.784ZM91.018 235.933C92.2821 234.59 92.8258 232.668 92.8258 230.352H90.8258C90.8258 232.388 90.3454 233.73 89.5616 234.563L91.018 235.933ZM92.8258 230.352V178.8H90.8258V230.352H92.8258ZM91.8258 179.8H102.386V177.8H91.8258V179.8ZM101.386 178.8V230.064H103.386V178.8H101.386ZM101.386 230.064C101.386 235.433 100.135 239.233 97.8216 241.662L99.2699 243.042C102.076 240.095 103.386 235.703 103.386 230.064H101.386ZM97.813 241.672C95.5736 244.083 92.0493 245.384 87.0258 245.384V247.384C92.3702 247.384 96.5259 245.997 99.2785 243.032L97.813 241.672ZM117.909 178.8V177.8H117.058L116.922 178.639L117.909 178.8ZM132.213 178.8L133.199 178.639L133.063 177.8H132.213V178.8ZM143.157 246V247H144.333L144.143 245.839L143.157 246ZM132.597 246L131.607 246.142L131.73 247H132.597V246ZM130.677 232.656L131.666 232.514L129.677 232.656H130.677ZM130.677 232.848V233.848H131.677V232.848H130.677ZM118.677 232.848V231.848H117.812L117.687 232.704L118.677 232.848ZM116.757 246V247H117.621L117.746 246.144L116.757 246ZM106.965 246L105.978 245.839L105.788 247H106.965V246ZM129.429 223.728V224.728H130.58L130.419 223.588L129.429 223.728ZM124.725 190.512L125.715 190.372L125.593 189.512H124.725V190.512ZM124.533 190.512V189.512H123.662L123.542 190.375L124.533 190.512ZM119.924 223.728L118.934 223.591L118.776 224.728H119.924V223.728ZM117.909 179.8H132.213V177.8H117.909V179.8ZM131.226 178.961L142.17 246.161L144.143 245.839L133.199 178.639L131.226 178.961ZM143.157 245H132.597V247H143.157V245ZM133.586 245.858L131.666 232.514L129.687 232.798L131.607 246.142L133.586 245.858ZM129.677 232.656V232.848H131.677V232.656H129.677ZM130.677 231.848H118.677V233.848H130.677V231.848ZM117.687 232.704L115.767 245.856L117.746 246.144L119.666 232.992L117.687 232.704ZM116.757 245H106.965V247H116.757V245ZM107.951 246.161L118.895 178.961L116.922 178.639L105.978 245.839L107.951 246.161ZM130.419 223.588L125.715 190.372L123.734 190.652L128.438 223.868L130.419 223.588ZM124.725 189.512H124.533V191.512H124.725V189.512ZM123.542 190.375L118.934 223.591L120.915 223.865L125.523 190.649L123.542 190.375ZM119.924 224.728H129.429V222.728H119.924V224.728ZM163.655 178.8V177.8H162.655V178.8H163.655ZM191.495 182.64L190.779 183.338L190.788 183.347L191.495 182.64ZM193.511 205.392L192.627 204.924L192.622 204.934L192.616 204.945L193.511 205.392ZM188.423 210.096L188.038 209.173L187.423 209.429V210.096H188.423ZM188.423 210.288H187.423V211.003L188.1 211.234L188.423 210.288ZM192.167 241.968L192.874 242.675L192.874 242.675L192.167 241.968ZM163.655 246H162.655V247H163.655V246ZM183.047 204.528L182.34 203.821L182.329 203.832L182.319 203.843L183.047 204.528ZM183.335 190.032L182.54 190.639L182.551 190.654L182.563 190.668L183.335 190.032ZM174.215 188.4V187.4H173.215V188.4H174.215ZM174.215 206.16H173.215V207.16H174.215V206.16ZM184.391 234.96L185.122 235.642L185.133 235.631L185.143 235.619L184.391 234.96ZM184.103 217.584L183.338 218.228L183.356 218.25L183.376 218.271L184.103 217.584ZM174.215 215.76V214.76H173.215V215.76H174.215ZM174.215 236.4H173.215V237.4H174.215V236.4ZM163.655 179.8H179.591V177.8H163.655V179.8ZM179.591 179.8C184.9 179.8 188.55 181.052 190.779 183.338L192.211 181.942C189.448 179.108 185.162 177.8 179.591 177.8V179.8ZM190.788 183.347C193.022 185.581 194.239 189.145 194.239 194.256H196.239C196.239 188.871 194.96 184.691 192.202 181.933L190.788 183.347ZM194.239 194.256V196.944H196.239V194.256H194.239ZM194.239 196.944C194.239 200.299 193.678 202.939 192.627 204.924L194.395 205.86C195.647 203.493 196.239 200.501 196.239 196.944H194.239ZM192.616 204.945C191.639 206.9 190.127 208.303 188.038 209.173L188.807 211.019C191.327 209.969 193.207 208.236 194.405 205.839L192.616 204.945ZM187.423 210.096V210.288H189.423V210.096H187.423ZM188.1 211.234C190.5 212.054 192.268 213.512 193.455 215.626C194.655 217.763 195.295 220.633 195.295 224.304H197.295C197.295 220.423 196.622 217.181 195.199 214.646C193.762 212.088 191.594 210.314 188.746 209.342L188.1 211.234ZM195.295 224.304V230.064H197.295V224.304H195.295ZM195.295 230.064C195.295 235.074 193.968 238.752 191.46 241.261L192.874 242.675C195.869 239.68 197.295 235.422 197.295 230.064H195.295ZM191.46 241.261C189.021 243.699 185.348 245 180.263 245V247C185.673 247 189.936 245.613 192.874 242.675L191.46 241.261ZM180.263 245H163.655V247H180.263V245ZM164.655 246V178.8H162.655V246H164.655ZM178.343 207.16C180.614 207.16 182.495 206.574 183.775 205.213L182.319 203.843C181.551 204.658 180.295 205.16 178.343 205.16V207.16ZM183.754 205.235C185.121 203.868 185.679 201.715 185.679 199.056H183.679C183.679 201.517 183.148 203.012 182.34 203.821L183.754 205.235ZM185.679 199.056V195.312H183.679V199.056H185.679ZM185.679 195.312C185.679 192.801 185.224 190.753 184.107 189.396L182.563 190.668C183.237 191.487 183.679 192.959 183.679 195.312H185.679ZM184.129 189.425C183.046 188.008 181.351 187.4 179.303 187.4V189.4C180.966 189.4 181.96 189.88 182.54 190.639L184.129 189.425ZM179.303 187.4H174.215V189.4H179.303V187.4ZM173.215 188.4V206.16H175.215V188.4H173.215ZM174.215 207.16H178.343V205.16H174.215V207.16ZM180.263 237.4C182.279 237.4 183.969 236.877 185.122 235.642L183.66 234.278C183.02 234.963 181.959 235.4 180.263 235.4V237.4ZM185.143 235.619C186.284 234.315 186.735 232.279 186.735 229.776H184.735C184.735 232.137 184.29 233.557 183.638 234.301L185.143 235.619ZM186.735 229.776V223.92H184.735V229.776H186.735ZM186.735 223.92C186.735 220.802 186.197 218.346 184.83 216.897L183.376 218.271C184.184 219.126 184.735 220.894 184.735 223.92H186.735ZM184.868 216.94C183.571 215.401 181.488 214.76 178.919 214.76V216.76C181.213 216.76 182.586 217.335 183.338 218.228L184.868 216.94ZM178.919 214.76H174.215V216.76H178.919V214.76ZM173.215 215.76V236.4H175.215V215.76H173.215ZM174.215 237.4H180.263V235.4H174.215V237.4ZM202.467 178.8V177.8H201.467V178.8H202.467ZM231.267 178.8H232.267V177.8H231.267V178.8ZM231.267 188.4V189.4H232.267V188.4H231.267ZM213.027 188.4V187.4H212.027V188.4H213.027ZM213.027 206.16H212.027V207.16H213.027V206.16ZM227.523 206.16H228.523V205.16H227.523V206.16ZM227.523 215.76V216.76H228.523V215.76H227.523ZM213.027 215.76V214.76H212.027V215.76H213.027ZM213.027 236.4H212.027V237.4H213.027V236.4ZM231.267 236.4H232.267V235.4H231.267V236.4ZM231.267 246V247H232.267V246H231.267ZM202.467 246H201.467V247H202.467V246ZM202.467 179.8H231.267V177.8H202.467V179.8ZM230.267 178.8V188.4H232.267V178.8H230.267ZM231.267 187.4H213.027V189.4H231.267V187.4ZM212.027 188.4V206.16H214.027V188.4H212.027ZM213.027 207.16H227.523V205.16H213.027V207.16ZM226.523 206.16V215.76H228.523V206.16H226.523ZM227.523 214.76H213.027V216.76H227.523V214.76ZM212.027 215.76V236.4H214.027V215.76H212.027ZM213.027 237.4H231.267V235.4H213.027V237.4ZM230.267 236.4V246H232.267V236.4H230.267ZM231.267 245H202.467V247H231.267V245ZM203.467 246V178.8H201.467V246H203.467ZM237.342 178.8V177.8H236.342V178.8H237.342ZM252.414 178.8L253.405 178.662L253.284 177.8H252.414V178.8ZM259.134 226.896L258.144 227.034L258.264 227.896H259.134V226.896ZM259.326 226.896V227.896H260.196L260.317 227.034L259.326 226.896ZM266.046 178.8V177.8H265.176L265.056 178.662L266.046 178.8ZM281.118 178.8H282.118V177.8H281.118V178.8ZM281.118 246V247H282.118V246H281.118ZM271.134 246H270.134V247H271.134V246ZM271.134 195.12H272.134V194.12H271.134V195.12ZM270.942 195.12V194.12H270.082L269.953 194.971L270.942 195.12ZM263.262 246V247H264.123L264.251 246.149L263.262 246ZM254.43 246L253.441 246.149L253.57 247H254.43V246ZM246.75 195.12L247.739 194.971L247.611 194.12H246.75V195.12ZM246.558 195.12V194.12H245.558V195.12H246.558ZM246.558 246V247H247.558V246H246.558ZM237.342 246H236.342V247H237.342V246ZM237.342 179.8H252.414V177.8H237.342V179.8ZM251.424 178.938L258.144 227.034L260.125 226.758L253.405 178.662L251.424 178.938ZM259.134 227.896H259.326V225.896H259.134V227.896ZM260.317 227.034L267.037 178.938L265.056 178.662L258.336 226.758L260.317 227.034ZM266.046 179.8H281.118V177.8H266.046V179.8ZM280.118 178.8V246H282.118V178.8H280.118ZM281.118 245H271.134V247H281.118V245ZM272.134 246V195.12H270.134V246H272.134ZM271.134 194.12H270.942V196.12H271.134V194.12ZM269.953 194.971L262.273 245.851L264.251 246.149L271.931 195.269L269.953 194.971ZM263.262 245H254.43V247H263.262V245ZM255.419 245.851L247.739 194.971L245.761 195.269L253.441 246.149L255.419 245.851ZM246.75 194.12H246.558V196.12H246.75V194.12ZM245.558 195.12V246H247.558V195.12H245.558ZM246.558 245H237.342V247H246.558V245ZM238.342 246V178.8H236.342V246H238.342ZM301.59 178.8V177.8H300.427L300.601 178.95L301.59 178.8ZM312.246 178.8L313.237 178.669L313.122 177.8H312.246V178.8ZM319.158 230.928L318.166 231.059L318.281 231.928H319.158V230.928ZM319.35 230.928V231.928H320.226L320.341 231.059L319.35 230.928ZM326.262 178.8V177.8H325.385L325.27 178.669L326.262 178.8ZM335.958 178.8L336.946 178.95L337.12 177.8H335.958V178.8ZM325.781 246V247H326.641L326.77 246.15L325.781 246ZM311.766 246L310.777 246.15L310.906 247H311.766V246ZM301.59 179.8H312.246V177.8H301.59V179.8ZM311.254 178.931L318.166 231.059L320.149 230.797L313.237 178.669L311.254 178.931ZM319.158 231.928H319.35V229.928H319.158V231.928ZM320.341 231.059L327.253 178.931L325.27 178.669L318.358 230.797L320.341 231.059ZM326.262 179.8H335.958V177.8H326.262V179.8ZM334.969 178.65L324.793 245.85L326.77 246.15L336.946 178.95L334.969 178.65ZM325.781 245H311.766V247H325.781V245ZM312.754 245.85L302.578 178.65L300.601 178.95L310.777 246.15L312.754 245.85ZM341.03 178.8V177.8H340.03V178.8H341.03ZM351.59 178.8H352.59V177.8H351.59V178.8ZM351.59 246V247H352.59V246H351.59ZM341.03 246H340.03V247H341.03V246ZM341.03 179.8H351.59V177.8H341.03V179.8ZM350.59 178.8V246H352.59V178.8H350.59ZM351.59 245H341.03V247H351.59V245ZM342.03 246V178.8H340.03V246H342.03ZM359.499 178.8V177.8H358.499V178.8H359.499ZM372.747 178.8L373.715 178.553L373.523 177.8H372.747V178.8ZM383.019 219.024L382.05 219.271L382.242 220.024H383.019V219.024ZM383.211 219.024V220.024H384.211V219.024H383.211ZM383.211 178.8V177.8H382.211V178.8H383.211ZM392.619 178.8H393.619V177.8H392.619V178.8ZM392.619 246V247H393.619V246H392.619ZM381.771 246L380.802 246.25L380.996 247H381.771V246ZM369.099 196.944L370.067 196.694L369.873 195.944H369.099V196.944ZM368.907 196.944V195.944H367.907V196.944H368.907ZM368.907 246V247H369.907V246H368.907ZM359.499 246H358.499V247H359.499V246ZM359.499 179.8H372.747V177.8H359.499V179.8ZM371.778 179.047L382.05 219.271L383.987 218.777L373.715 178.553L371.778 179.047ZM383.019 220.024H383.211V218.024H383.019V220.024ZM384.211 219.024V178.8H382.211V219.024H384.211ZM383.211 179.8H392.619V177.8H383.211V179.8ZM391.619 178.8V246H393.619V178.8H391.619ZM392.619 245H381.771V247H392.619V245ZM382.739 245.75L370.067 196.694L368.13 197.194L380.802 246.25L382.739 245.75ZM369.099 195.944H368.907V197.944H369.099V195.944ZM367.907 196.944V246H369.907V196.944H367.907ZM368.907 245H359.499V247H368.907V245ZM360.499 246V178.8H358.499V246H360.499ZM400.467 178.8V177.8H399.467V178.8H400.467ZM428.403 183.024L427.672 183.706L427.672 183.706L428.403 183.024ZM400.467 246H399.467V247H400.467V246ZM420.339 234.864L419.61 234.18L419.598 234.193L419.587 234.205L420.339 234.864ZM420.339 189.936L419.587 190.595L419.598 190.607L419.61 190.62L420.339 189.936ZM411.027 188.4V187.4H410.027V188.4H411.027ZM411.027 236.4H410.027V237.4H411.027V236.4ZM400.467 179.8H416.595V177.8H400.467V179.8ZM416.595 179.8C421.67 179.8 425.298 181.158 427.672 183.706L429.135 182.342C426.261 179.258 422.016 177.8 416.595 177.8V179.8ZM427.672 183.706C430.063 186.272 431.339 190.116 431.339 195.408H433.339C433.339 189.82 431.991 185.408 429.135 182.342L427.672 183.706ZM431.339 195.408V229.392H433.339V195.408H431.339ZM431.339 229.392C431.339 234.684 430.063 238.528 427.672 241.094L429.135 242.458C431.991 239.392 433.339 234.98 433.339 229.392H431.339ZM427.672 241.094C425.298 243.642 421.67 245 416.595 245V247C422.016 247 426.261 245.542 429.135 242.458L427.672 241.094ZM416.595 245H400.467V247H416.595V245ZM401.467 246V178.8H399.467V246H401.467ZM416.403 237.4C418.336 237.4 419.957 236.819 421.092 235.523L419.587 234.205C418.929 234.957 417.926 235.4 416.403 235.4V237.4ZM421.069 235.548C422.285 234.251 422.779 232.276 422.779 229.872H420.779C420.779 232.076 420.314 233.429 419.61 234.18L421.069 235.548ZM422.779 229.872V194.928H420.779V229.872H422.779ZM422.779 194.928C422.779 192.524 422.285 190.549 421.069 189.252L419.61 190.62C420.314 191.371 420.779 192.724 420.779 194.928H422.779ZM421.092 189.277C419.957 187.981 418.336 187.4 416.403 187.4V189.4C417.926 189.4 418.929 189.843 419.587 190.595L421.092 189.277ZM416.403 187.4H411.027V189.4H416.403V187.4ZM410.027 188.4V236.4H412.027V188.4H410.027ZM411.027 237.4H416.403V235.4H411.027V237.4ZM442.827 242.544L443.558 241.861L443.558 241.861L442.827 242.544ZM442.827 182.256L443.558 182.939L443.558 182.939L442.827 182.256ZM466.635 182.256L465.905 182.939L465.905 182.939L466.635 182.256ZM466.635 242.544L465.905 241.861L465.905 241.861L466.635 242.544ZM454.731 245.96C449.74 245.96 446.07 244.549 443.558 241.861L442.097 243.227C445.088 246.427 449.354 247.96 454.731 247.96V245.96ZM443.558 241.861C441.03 239.157 439.699 235.273 439.699 230.064H437.699C437.699 235.607 439.12 240.043 442.097 243.227L443.558 241.861ZM439.699 230.064V194.736H437.699V230.064H439.699ZM439.699 194.736C439.699 189.527 441.03 185.643 443.558 182.939L442.097 181.573C439.12 184.757 437.699 189.193 437.699 194.736H439.699ZM443.558 182.939C446.07 180.251 449.74 178.84 454.731 178.84V176.84C449.354 176.84 445.088 178.373 442.097 181.573L443.558 182.939ZM454.731 178.84C459.722 178.84 463.392 180.251 465.905 182.939L467.366 181.573C464.374 178.373 460.108 176.84 454.731 176.84V178.84ZM465.905 182.939C468.432 185.643 469.763 189.527 469.763 194.736H471.763C471.763 189.193 470.342 184.757 467.366 181.573L465.905 182.939ZM469.763 194.736V230.064H471.763V194.736H469.763ZM469.763 230.064C469.763 235.273 468.432 239.157 465.905 241.861L467.366 243.227C470.342 240.043 471.763 235.607 471.763 230.064H469.763ZM465.905 241.861C463.392 244.549 459.722 245.96 454.731 245.96V247.96C460.108 247.96 464.374 246.427 467.366 243.227L465.905 241.861ZM454.731 238.36C456.765 238.36 458.454 237.735 459.606 236.341C460.728 234.983 461.203 233.057 461.203 230.736H459.203C459.203 232.831 458.767 234.217 458.064 235.067C457.392 235.881 456.345 236.36 454.731 236.36V238.36ZM461.203 230.736V194.064H459.203V230.736H461.203ZM461.203 194.064C461.203 191.743 460.728 189.817 459.606 188.459C458.454 187.065 456.765 186.44 454.731 186.44V188.44C456.345 188.44 457.392 188.919 458.064 189.733C458.767 190.583 459.203 191.969 459.203 194.064H461.203ZM454.731 186.44C452.697 186.44 451.008 187.065 449.856 188.459C448.735 189.817 448.259 191.743 448.259 194.064H450.259C450.259 191.969 450.696 190.583 451.398 189.733C452.07 188.919 453.117 188.44 454.731 188.44V186.44ZM448.259 194.064V230.736H450.259V194.064H448.259ZM448.259 230.736C448.259 233.057 448.735 234.983 449.856 236.341C451.008 237.735 452.697 238.36 454.731 238.36V236.36C453.117 236.36 452.07 235.881 451.398 235.067C450.696 234.217 450.259 232.831 450.259 230.736H448.259Z" fill="white"/>
</g>
<g filter="url(#filter3_d_3_18)">
<path d="M16.048 242.64L15.3014 243.305L15.3088 243.313L16.048 242.64ZM12.112 226.224V225.224H11.112V226.224H12.112ZM22.096 226.224H23.096V225.224H22.096V226.224ZM31.6 235.824L30.8502 235.162L30.8474 235.165L31.6 235.824ZM31.12 223.248L30.258 223.755L30.2648 223.766L31.12 223.248ZM24.016 215.472L23.3544 216.222L23.3595 216.226L24.016 215.472ZM14.896 205.104L14.0201 205.587L14.0244 205.594L14.896 205.104ZM16.336 182.256L17.0671 182.938L17.0745 182.93L16.336 182.256ZM39.472 182.256L38.7174 182.912L38.725 182.921L38.7328 182.929L39.472 182.256ZM43.408 197.52V198.52H44.408V197.52H43.408ZM33.424 197.52H32.424V198.52H33.424V197.52ZM32.08 189.072L31.3081 189.708L31.3176 189.719L31.3274 189.73L32.08 189.072ZM24.784 200.688L23.9288 201.206L23.9345 201.216L23.9403 201.225L24.784 200.688ZM31.984 208.368L31.3275 209.122L31.3278 209.123L31.984 208.368ZM41.104 218.832L40.2207 219.301L40.2207 219.301L41.104 218.832ZM39.472 242.544L38.7414 241.861L38.7335 241.87L39.472 242.544ZM27.664 245.96C22.7322 245.96 19.1669 244.578 16.7872 241.967L15.3088 243.313C18.1771 246.462 22.3558 247.96 27.664 247.96V245.96ZM16.7945 241.975C14.3868 239.273 13.112 235.352 13.112 230.064H11.112C11.112 235.656 12.4612 240.119 15.3015 243.305L16.7945 241.975ZM13.112 230.064V226.224H11.112V230.064H13.112ZM12.112 227.224H22.096V225.224H12.112V227.224ZM21.096 226.224V230.832H23.096V226.224H21.096ZM21.096 230.832C21.096 233.123 21.5725 235.028 22.6976 236.37C23.8511 237.746 25.539 238.36 27.568 238.36V236.36C25.949 236.36 24.9009 235.886 24.2304 235.086C23.5315 234.252 23.096 232.893 23.096 230.832H21.096ZM27.568 238.36C29.5514 238.36 31.211 237.787 32.3526 236.483L30.8474 235.165C30.197 235.909 29.1686 236.36 27.568 236.36V238.36ZM32.3498 236.486C33.5461 235.13 34.04 233.107 34.04 230.64H32.04C32.04 232.909 31.5739 234.342 30.8502 235.162L32.3498 236.486ZM34.04 230.64C34.04 227.667 33.3626 225.019 31.9752 222.73L30.2648 223.766C31.4374 225.701 32.04 227.981 32.04 230.64H34.04ZM31.9819 222.741C30.6197 220.425 28.155 217.749 24.6725 214.718L23.3595 216.226C26.789 219.211 29.0603 221.719 30.2581 223.755L31.9819 222.741ZM24.6776 214.722C20.3626 210.915 17.4166 207.545 15.7676 204.614L14.0244 205.594C15.8314 208.807 18.9654 212.349 23.3544 216.222L24.6776 214.722ZM15.7718 204.621C14.1325 201.646 13.304 198.295 13.304 194.544H11.304C11.304 198.601 12.2035 202.29 14.0202 205.587L15.7718 204.621ZM13.304 194.544C13.304 189.395 14.6047 185.577 17.0671 182.938L15.6049 181.574C12.6913 184.695 11.304 189.069 11.304 194.544H13.304ZM17.0745 182.93C19.5225 180.249 23.1241 178.84 28.048 178.84V176.84C22.7319 176.84 18.5255 178.375 15.5975 181.582L17.0745 182.93ZM28.048 178.84C32.906 178.84 36.4001 180.247 38.7174 182.912L40.2266 181.6C37.4239 178.377 33.302 176.84 28.048 176.84V178.84ZM38.7328 182.929C41.1326 185.563 42.408 189.446 42.408 194.736H44.408C44.408 189.146 43.0595 184.709 40.2112 181.583L38.7328 182.929ZM42.408 194.736V197.52H44.408V194.736H42.408ZM43.408 196.52H33.424V198.52H43.408V196.52ZM34.424 197.52V194.064H32.424V197.52H34.424ZM34.424 194.064C34.424 191.673 33.9668 189.71 32.8326 188.413L31.3274 189.73C31.9852 190.482 32.424 191.847 32.424 194.064H34.424ZM32.8519 188.436C31.7234 187.066 30.0967 186.44 28.144 186.44V188.44C29.6473 188.44 30.6446 188.902 31.3081 189.708L32.8519 188.436ZM28.144 186.44C26.1721 186.44 24.5303 187.05 23.4111 188.414C22.3229 189.739 21.864 191.617 21.864 193.872H23.864C23.864 191.839 24.2851 190.501 24.9569 189.682C25.5977 188.902 26.5959 188.44 28.144 188.44V186.44ZM21.864 193.872C21.864 196.49 22.5556 198.941 23.9288 201.206L25.6392 200.17C24.4524 198.211 23.864 196.118 23.864 193.872H21.864ZM23.9403 201.225C25.3622 203.459 27.8485 206.094 31.3275 209.122L32.6405 207.614C29.2075 204.626 26.8938 202.141 25.6277 200.151L23.9403 201.225ZM31.3278 209.123C35.7034 212.927 38.6395 216.321 40.2207 219.301L41.9873 218.363C40.2405 215.071 37.0966 211.489 32.6402 207.613L31.3278 209.123ZM40.2207 219.301C41.7948 222.267 42.6 225.781 42.6 229.872H44.6C44.6 225.515 43.7412 221.669 41.9873 218.363L40.2207 219.301ZM42.6 229.872C42.6 235.216 41.2653 239.161 38.7415 241.861L40.2025 243.227C43.1827 240.039 44.6 235.536 44.6 229.872H42.6ZM38.7335 241.87C36.2878 244.548 32.6563 245.96 27.664 245.96V247.96C33.0397 247.96 37.2802 246.428 40.2105 243.218L38.7335 241.87ZM49.6548 178.8V177.8H48.6548V178.8H49.6548ZM78.4548 178.8H79.4548V177.8H78.4548V178.8ZM78.4548 188.4V189.4H79.4548V188.4H78.4548ZM60.2148 188.4V187.4H59.2148V188.4H60.2148ZM60.2148 206.16H59.2148V207.16H60.2148V206.16ZM74.7108 206.16H75.7108V205.16H74.7108V206.16ZM74.7108 215.76V216.76H75.7108V215.76H74.7108ZM60.2148 215.76V214.76H59.2148V215.76H60.2148ZM60.2148 236.4H59.2148V237.4H60.2148V236.4ZM78.4548 236.4H79.4548V235.4H78.4548V236.4ZM78.4548 246V247H79.4548V246H78.4548ZM49.6548 246H48.6548V247H49.6548V246ZM49.6548 179.8H78.4548V177.8H49.6548V179.8ZM77.4548 178.8V188.4H79.4548V178.8H77.4548ZM78.4548 187.4H60.2148V189.4H78.4548V187.4ZM59.2148 188.4V206.16H61.2148V188.4H59.2148ZM60.2148 207.16H74.7108V205.16H60.2148V207.16ZM73.7108 206.16V215.76H75.7108V206.16H73.7108ZM74.7108 214.76H60.2148V216.76H74.7108V214.76ZM59.2148 215.76V236.4H61.2148V215.76H59.2148ZM60.2148 237.4H78.4548V235.4H60.2148V237.4ZM77.4548 236.4V246H79.4548V236.4H77.4548ZM78.4548 245H49.6548V247H78.4548V245ZM50.6548 246V178.8H48.6548V246H50.6548ZM82.1298 246H81.1298V246.828L81.9426 246.982L82.1298 246ZM82.1298 236.4L82.3723 235.43L81.1298 235.119V236.4H82.1298ZM90.2898 235.248L90.9969 235.955L91.0076 235.944L91.018 235.933L90.2898 235.248ZM91.8258 178.8V177.8H90.8258V178.8H91.8258ZM102.386 178.8H103.386V177.8H102.386V178.8ZM98.5458 242.352L97.8216 241.662L97.813 241.672L98.5458 242.352ZM87.0258 245.384C85.1455 245.384 83.5801 245.258 82.3169 245.018L81.9426 246.982C83.3674 247.254 85.066 247.384 87.0258 247.384V245.384ZM83.1298 246V236.4H81.1298V246H83.1298ZM81.8872 237.37C83.0052 237.65 84.2406 237.784 85.5858 237.784V235.784C84.3709 235.784 83.3023 235.662 82.3723 235.43L81.8872 237.37ZM85.5858 237.784C87.8415 237.784 89.7141 237.238 90.9969 235.955L89.5826 234.541C88.8174 235.306 87.554 235.784 85.5858 235.784V237.784ZM91.018 235.933C92.2821 234.59 92.8258 232.668 92.8258 230.352H90.8258C90.8258 232.388 90.3454 233.73 89.5616 234.563L91.018 235.933ZM92.8258 230.352V178.8H90.8258V230.352H92.8258ZM91.8258 179.8H102.386V177.8H91.8258V179.8ZM101.386 178.8V230.064H103.386V178.8H101.386ZM101.386 230.064C101.386 235.433 100.135 239.233 97.8216 241.662L99.2699 243.042C102.076 240.095 103.386 235.703 103.386 230.064H101.386ZM97.813 241.672C95.5736 244.083 92.0493 245.384 87.0258 245.384V247.384C92.3702 247.384 96.5259 245.997 99.2785 243.032L97.813 241.672ZM117.909 178.8V177.8H117.058L116.922 178.639L117.909 178.8ZM132.213 178.8L133.199 178.639L133.063 177.8H132.213V178.8ZM143.157 246V247H144.333L144.143 245.839L143.157 246ZM132.597 246L131.607 246.142L131.73 247H132.597V246ZM130.677 232.656L131.666 232.514L129.677 232.656H130.677ZM130.677 232.848V233.848H131.677V232.848H130.677ZM118.677 232.848V231.848H117.812L117.687 232.704L118.677 232.848ZM116.757 246V247H117.621L117.746 246.144L116.757 246ZM106.965 246L105.978 245.839L105.788 247H106.965V246ZM129.429 223.728V224.728H130.58L130.419 223.588L129.429 223.728ZM124.725 190.512L125.715 190.372L125.593 189.512H124.725V190.512ZM124.533 190.512V189.512H123.662L123.542 190.375L124.533 190.512ZM119.924 223.728L118.934 223.591L118.776 224.728H119.924V223.728ZM117.909 179.8H132.213V177.8H117.909V179.8ZM131.226 178.961L142.17 246.161L144.143 245.839L133.199 178.639L131.226 178.961ZM143.157 245H132.597V247H143.157V245ZM133.586 245.858L131.666 232.514L129.687 232.798L131.607 246.142L133.586 245.858ZM129.677 232.656V232.848H131.677V232.656H129.677ZM130.677 231.848H118.677V233.848H130.677V231.848ZM117.687 232.704L115.767 245.856L117.746 246.144L119.666 232.992L117.687 232.704ZM116.757 245H106.965V247H116.757V245ZM107.951 246.161L118.895 178.961L116.922 178.639L105.978 245.839L107.951 246.161ZM130.419 223.588L125.715 190.372L123.734 190.652L128.438 223.868L130.419 223.588ZM124.725 189.512H124.533V191.512H124.725V189.512ZM123.542 190.375L118.934 223.591L120.915 223.865L125.523 190.649L123.542 190.375ZM119.924 224.728H129.429V222.728H119.924V224.728ZM163.655 178.8V177.8H162.655V178.8H163.655ZM191.495 182.64L190.779 183.338L190.788 183.347L191.495 182.64ZM193.511 205.392L192.627 204.924L192.622 204.934L192.616 204.945L193.511 205.392ZM188.423 210.096L188.038 209.173L187.423 209.429V210.096H188.423ZM188.423 210.288H187.423V211.003L188.1 211.234L188.423 210.288ZM192.167 241.968L192.874 242.675L192.874 242.675L192.167 241.968ZM163.655 246H162.655V247H163.655V246ZM183.047 204.528L182.34 203.821L182.329 203.832L182.319 203.843L183.047 204.528ZM183.335 190.032L182.54 190.639L182.551 190.654L182.563 190.668L183.335 190.032ZM174.215 188.4V187.4H173.215V188.4H174.215ZM174.215 206.16H173.215V207.16H174.215V206.16ZM184.391 234.96L185.122 235.642L185.133 235.631L185.143 235.619L184.391 234.96ZM184.103 217.584L183.338 218.228L183.356 218.25L183.376 218.271L184.103 217.584ZM174.215 215.76V214.76H173.215V215.76H174.215ZM174.215 236.4H173.215V237.4H174.215V236.4ZM163.655 179.8H179.591V177.8H163.655V179.8ZM179.591 179.8C184.9 179.8 188.55 181.052 190.779 183.338L192.211 181.942C189.448 179.108 185.162 177.8 179.591 177.8V179.8ZM190.788 183.347C193.022 185.581 194.239 189.145 194.239 194.256H196.239C196.239 188.871 194.96 184.691 192.202 181.933L190.788 183.347ZM194.239 194.256V196.944H196.239V194.256H194.239ZM194.239 196.944C194.239 200.299 193.678 202.939 192.627 204.924L194.395 205.86C195.647 203.493 196.239 200.501 196.239 196.944H194.239ZM192.616 204.945C191.639 206.9 190.127 208.303 188.038 209.173L188.807 211.019C191.327 209.969 193.207 208.236 194.405 205.839L192.616 204.945ZM187.423 210.096V210.288H189.423V210.096H187.423ZM188.1 211.234C190.5 212.054 192.268 213.512 193.455 215.626C194.655 217.763 195.295 220.633 195.295 224.304H197.295C197.295 220.423 196.622 217.181 195.199 214.646C193.762 212.088 191.594 210.314 188.746 209.342L188.1 211.234ZM195.295 224.304V230.064H197.295V224.304H195.295ZM195.295 230.064C195.295 235.074 193.968 238.752 191.46 241.261L192.874 242.675C195.869 239.68 197.295 235.422 197.295 230.064H195.295ZM191.46 241.261C189.021 243.699 185.348 245 180.263 245V247C185.673 247 189.936 245.613 192.874 242.675L191.46 241.261ZM180.263 245H163.655V247H180.263V245ZM164.655 246V178.8H162.655V246H164.655ZM178.343 207.16C180.614 207.16 182.495 206.574 183.775 205.213L182.319 203.843C181.551 204.658 180.295 205.16 178.343 205.16V207.16ZM183.754 205.235C185.121 203.868 185.679 201.715 185.679 199.056H183.679C183.679 201.517 183.148 203.012 182.34 203.821L183.754 205.235ZM185.679 199.056V195.312H183.679V199.056H185.679ZM185.679 195.312C185.679 192.801 185.224 190.753 184.107 189.396L182.563 190.668C183.237 191.487 183.679 192.959 183.679 195.312H185.679ZM184.129 189.425C183.046 188.008 181.351 187.4 179.303 187.4V189.4C180.966 189.4 181.96 189.88 182.54 190.639L184.129 189.425ZM179.303 187.4H174.215V189.4H179.303V187.4ZM173.215 188.4V206.16H175.215V188.4H173.215ZM174.215 207.16H178.343V205.16H174.215V207.16ZM180.263 237.4C182.279 237.4 183.969 236.877 185.122 235.642L183.66 234.278C183.02 234.963 181.959 235.4 180.263 235.4V237.4ZM185.143 235.619C186.284 234.315 186.735 232.279 186.735 229.776H184.735C184.735 232.137 184.29 233.557 183.638 234.301L185.143 235.619ZM186.735 229.776V223.92H184.735V229.776H186.735ZM186.735 223.92C186.735 220.802 186.197 218.346 184.83 216.897L183.376 218.271C184.184 219.126 184.735 220.894 184.735 223.92H186.735ZM184.868 216.94C183.571 215.401 181.488 214.76 178.919 214.76V216.76C181.213 216.76 182.586 217.335 183.338 218.228L184.868 216.94ZM178.919 214.76H174.215V216.76H178.919V214.76ZM173.215 215.76V236.4H175.215V215.76H173.215ZM174.215 237.4H180.263V235.4H174.215V237.4ZM202.467 178.8V177.8H201.467V178.8H202.467ZM231.267 178.8H232.267V177.8H231.267V178.8ZM231.267 188.4V189.4H232.267V188.4H231.267ZM213.027 188.4V187.4H212.027V188.4H213.027ZM213.027 206.16H212.027V207.16H213.027V206.16ZM227.523 206.16H228.523V205.16H227.523V206.16ZM227.523 215.76V216.76H228.523V215.76H227.523ZM213.027 215.76V214.76H212.027V215.76H213.027ZM213.027 236.4H212.027V237.4H213.027V236.4ZM231.267 236.4H232.267V235.4H231.267V236.4ZM231.267 246V247H232.267V246H231.267ZM202.467 246H201.467V247H202.467V246ZM202.467 179.8H231.267V177.8H202.467V179.8ZM230.267 178.8V188.4H232.267V178.8H230.267ZM231.267 187.4H213.027V189.4H231.267V187.4ZM212.027 188.4V206.16H214.027V188.4H212.027ZM213.027 207.16H227.523V205.16H213.027V207.16ZM226.523 206.16V215.76H228.523V206.16H226.523ZM227.523 214.76H213.027V216.76H227.523V214.76ZM212.027 215.76V236.4H214.027V215.76H212.027ZM213.027 237.4H231.267V235.4H213.027V237.4ZM230.267 236.4V246H232.267V236.4H230.267ZM231.267 245H202.467V247H231.267V245ZM203.467 246V178.8H201.467V246H203.467ZM237.342 178.8V177.8H236.342V178.8H237.342ZM252.414 178.8L253.405 178.662L253.284 177.8H252.414V178.8ZM259.134 226.896L258.144 227.034L258.264 227.896H259.134V226.896ZM259.326 226.896V227.896H260.196L260.317 227.034L259.326 226.896ZM266.046 178.8V177.8H265.176L265.056 178.662L266.046 178.8ZM281.118 178.8H282.118V177.8H281.118V178.8ZM281.118 246V247H282.118V246H281.118ZM271.134 246H270.134V247H271.134V246ZM271.134 195.12H272.134V194.12H271.134V195.12ZM270.942 195.12V194.12H270.082L269.953 194.971L270.942 195.12ZM263.262 246V247H264.123L264.251 246.149L263.262 246ZM254.43 246L253.441 246.149L253.57 247H254.43V246ZM246.75 195.12L247.739 194.971L247.611 194.12H246.75V195.12ZM246.558 195.12V194.12H245.558V195.12H246.558ZM246.558 246V247H247.558V246H246.558ZM237.342 246H236.342V247H237.342V246ZM237.342 179.8H252.414V177.8H237.342V179.8ZM251.424 178.938L258.144 227.034L260.125 226.758L253.405 178.662L251.424 178.938ZM259.134 227.896H259.326V225.896H259.134V227.896ZM260.317 227.034L267.037 178.938L265.056 178.662L258.336 226.758L260.317 227.034ZM266.046 179.8H281.118V177.8H266.046V179.8ZM280.118 178.8V246H282.118V178.8H280.118ZM281.118 245H271.134V247H281.118V245ZM272.134 246V195.12H270.134V246H272.134ZM271.134 194.12H270.942V196.12H271.134V194.12ZM269.953 194.971L262.273 245.851L264.251 246.149L271.931 195.269L269.953 194.971ZM263.262 245H254.43V247H263.262V245ZM255.419 245.851L247.739 194.971L245.761 195.269L253.441 246.149L255.419 245.851ZM246.75 194.12H246.558V196.12H246.75V194.12ZM245.558 195.12V246H247.558V195.12H245.558ZM246.558 245H237.342V247H246.558V245ZM238.342 246V178.8H236.342V246H238.342ZM301.59 178.8V177.8H300.427L300.601 178.95L301.59 178.8ZM312.246 178.8L313.237 178.669L313.122 177.8H312.246V178.8ZM319.158 230.928L318.166 231.059L318.281 231.928H319.158V230.928ZM319.35 230.928V231.928H320.226L320.341 231.059L319.35 230.928ZM326.262 178.8V177.8H325.385L325.27 178.669L326.262 178.8ZM335.958 178.8L336.946 178.95L337.12 177.8H335.958V178.8ZM325.781 246V247H326.641L326.77 246.15L325.781 246ZM311.766 246L310.777 246.15L310.906 247H311.766V246ZM301.59 179.8H312.246V177.8H301.59V179.8ZM311.254 178.931L318.166 231.059L320.149 230.797L313.237 178.669L311.254 178.931ZM319.158 231.928H319.35V229.928H319.158V231.928ZM320.341 231.059L327.253 178.931L325.27 178.669L318.358 230.797L320.341 231.059ZM326.262 179.8H335.958V177.8H326.262V179.8ZM334.969 178.65L324.793 245.85L326.77 246.15L336.946 178.95L334.969 178.65ZM325.781 245H311.766V247H325.781V245ZM312.754 245.85L302.578 178.65L300.601 178.95L310.777 246.15L312.754 245.85ZM341.03 178.8V177.8H340.03V178.8H341.03ZM351.59 178.8H352.59V177.8H351.59V178.8ZM351.59 246V247H352.59V246H351.59ZM341.03 246H340.03V247H341.03V246ZM341.03 179.8H351.59V177.8H341.03V179.8ZM350.59 178.8V246H352.59V178.8H350.59ZM351.59 245H341.03V247H351.59V245ZM342.03 246V178.8H340.03V246H342.03ZM359.499 178.8V177.8H358.499V178.8H359.499ZM372.747 178.8L373.715 178.553L373.523 177.8H372.747V178.8ZM383.019 219.024L382.05 219.271L382.242 220.024H383.019V219.024ZM383.211 219.024V220.024H384.211V219.024H383.211ZM383.211 178.8V177.8H382.211V178.8H383.211ZM392.619 178.8H393.619V177.8H392.619V178.8ZM392.619 246V247H393.619V246H392.619ZM381.771 246L380.802 246.25L380.996 247H381.771V246ZM369.099 196.944L370.067 196.694L369.873 195.944H369.099V196.944ZM368.907 196.944V195.944H367.907V196.944H368.907ZM368.907 246V247H369.907V246H368.907ZM359.499 246H358.499V247H359.499V246ZM359.499 179.8H372.747V177.8H359.499V179.8ZM371.778 179.047L382.05 219.271L383.987 218.777L373.715 178.553L371.778 179.047ZM383.019 220.024H383.211V218.024H383.019V220.024ZM384.211 219.024V178.8H382.211V219.024H384.211ZM383.211 179.8H392.619V177.8H383.211V179.8ZM391.619 178.8V246H393.619V178.8H391.619ZM392.619 245H381.771V247H392.619V245ZM382.739 245.75L370.067 196.694L368.13 197.194L380.802 246.25L382.739 245.75ZM369.099 195.944H368.907V197.944H369.099V195.944ZM367.907 196.944V246H369.907V196.944H367.907ZM368.907 245H359.499V247H368.907V245ZM360.499 246V178.8H358.499V246H360.499ZM400.467 178.8V177.8H399.467V178.8H400.467ZM428.403 183.024L427.672 183.706L427.672 183.706L428.403 183.024ZM400.467 246H399.467V247H400.467V246ZM420.339 234.864L419.61 234.18L419.598 234.193L419.587 234.205L420.339 234.864ZM420.339 189.936L419.587 190.595L419.598 190.607L419.61 190.62L420.339 189.936ZM411.027 188.4V187.4H410.027V188.4H411.027ZM411.027 236.4H410.027V237.4H411.027V236.4ZM400.467 179.8H416.595V177.8H400.467V179.8ZM416.595 179.8C421.67 179.8 425.298 181.158 427.672 183.706L429.135 182.342C426.261 179.258 422.016 177.8 416.595 177.8V179.8ZM427.672 183.706C430.063 186.272 431.339 190.116 431.339 195.408H433.339C433.339 189.82 431.991 185.408 429.135 182.342L427.672 183.706ZM431.339 195.408V229.392H433.339V195.408H431.339ZM431.339 229.392C431.339 234.684 430.063 238.528 427.672 241.094L429.135 242.458C431.991 239.392 433.339 234.98 433.339 229.392H431.339ZM427.672 241.094C425.298 243.642 421.67 245 416.595 245V247C422.016 247 426.261 245.542 429.135 242.458L427.672 241.094ZM416.595 245H400.467V247H416.595V245ZM401.467 246V178.8H399.467V246H401.467ZM416.403 237.4C418.336 237.4 419.957 236.819 421.092 235.523L419.587 234.205C418.929 234.957 417.926 235.4 416.403 235.4V237.4ZM421.069 235.548C422.285 234.251 422.779 232.276 422.779 229.872H420.779C420.779 232.076 420.314 233.429 419.61 234.18L421.069 235.548ZM422.779 229.872V194.928H420.779V229.872H422.779ZM422.779 194.928C422.779 192.524 422.285 190.549 421.069 189.252L419.61 190.62C420.314 191.371 420.779 192.724 420.779 194.928H422.779ZM421.092 189.277C419.957 187.981 418.336 187.4 416.403 187.4V189.4C417.926 189.4 418.929 189.843 419.587 190.595L421.092 189.277ZM416.403 187.4H411.027V189.4H416.403V187.4ZM410.027 188.4V236.4H412.027V188.4H410.027ZM411.027 237.4H416.403V235.4H411.027V237.4ZM442.827 242.544L443.558 241.861L443.558 241.861L442.827 242.544ZM442.827 182.256L443.558 182.939L443.558 182.939L442.827 182.256ZM466.635 182.256L465.905 182.939L465.905 182.939L466.635 182.256ZM466.635 242.544L465.905 241.861L465.905 241.861L466.635 242.544ZM454.731 245.96C449.74 245.96 446.07 244.549 443.558 241.861L442.097 243.227C445.088 246.427 449.354 247.96 454.731 247.96V245.96ZM443.558 241.861C441.03 239.157 439.699 235.273 439.699 230.064H437.699C437.699 235.607 439.12 240.043 442.097 243.227L443.558 241.861ZM439.699 230.064V194.736H437.699V230.064H439.699ZM439.699 194.736C439.699 189.527 441.03 185.643 443.558 182.939L442.097 181.573C439.12 184.757 437.699 189.193 437.699 194.736H439.699ZM443.558 182.939C446.07 180.251 449.74 178.84 454.731 178.84V176.84C449.354 176.84 445.088 178.373 442.097 181.573L443.558 182.939ZM454.731 178.84C459.722 178.84 463.392 180.251 465.905 182.939L467.366 181.573C464.374 178.373 460.108 176.84 454.731 176.84V178.84ZM465.905 182.939C468.432 185.643 469.763 189.527 469.763 194.736H471.763C471.763 189.193 470.342 184.757 467.366 181.573L465.905 182.939ZM469.763 194.736V230.064H471.763V194.736H469.763ZM469.763 230.064C469.763 235.273 468.432 239.157 465.905 241.861L467.366 243.227C470.342 240.043 471.763 235.607 471.763 230.064H469.763ZM465.905 241.861C463.392 244.549 459.722 245.96 454.731 245.96V247.96C460.108 247.96 464.374 246.427 467.366 243.227L465.905 241.861ZM454.731 238.36C456.765 238.36 458.454 237.735 459.606 236.341C460.728 234.983 461.203 233.057 461.203 230.736H459.203C459.203 232.831 458.767 234.217 458.064 235.067C457.392 235.881 456.345 236.36 454.731 236.36V238.36ZM461.203 230.736V194.064H459.203V230.736H461.203ZM461.203 194.064C461.203 191.743 460.728 189.817 459.606 188.459C458.454 187.065 456.765 186.44 454.731 186.44V188.44C456.345 188.44 457.392 188.919 458.064 189.733C458.767 190.583 459.203 191.969 459.203 194.064H461.203ZM454.731 186.44C452.697 186.44 451.008 187.065 449.856 188.459C448.735 189.817 448.259 191.743 448.259 194.064H450.259C450.259 191.969 450.696 190.583 451.398 189.733C452.07 188.919 453.117 188.44 454.731 188.44V186.44ZM448.259 194.064V230.736H450.259V194.064H448.259ZM448.259 230.736C448.259 233.057 448.735 234.983 449.856 236.341C451.008 237.735 452.697 238.36 454.731 238.36V236.36C453.117 236.36 452.07 235.881 451.398 235.067C450.696 234.217 450.259 232.831 450.259 230.736H448.259Z" fill="white"/>
</g>
<defs>
<filter id="filter0_d_3_18" x="30" y="0.5" width="424" height="562" filterUnits="userSpaceOnUse" color-interpolation-filters="sRGB">
<feFlood flood-opacity="0" result="BackgroundImageFix"/>
<feColorMatrix in="SourceAlpha" type="matrix" values="0 0 0 0 0 0 0 0 0 0 0 0 0 0 0 0 0 0 127 0" result="hardAlpha"/>
<feOffset/>
<feGaussianBlur stdDeviation="7.5"/>
<feComposite in2="hardAlpha" operator="out"/>
<feColorMatrix type="matrix" values="0 0 0 0 1 0 0 0 0 1 0 0 0 0 1 0 0 0 1 0"/>
<feBlend mode="normal" in2="BackgroundImageFix" result="effect1_dropShadow_3_18"/>
<feBlend mode="normal" in="SourceGraphic" in2="effect1_dropShadow_3_18" result="shape"/>
</filter>
<filter id="filter1_f_3_18" x="30" y="0.5" width="424" height="562" filterUnits="userSpaceOnUse" color-interpolation-filters="sRGB">
<feFlood flood-opacity="0" result="BackgroundImageFix"/>
<feBlend mode="normal" in="SourceGraphic" in2="BackgroundImageFix" result="shape"/>
<feGaussianBlur stdDeviation="7.5" result="effect1_foregroundBlur_3_18"/>
</filter>
<filter id="filter2_f_3_18" x="2.112" y="167.84" width="478.651" height="89.12" filterUnits="userSpaceOnUse" color-interpolation-filters="sRGB">
<feFlood flood-opacity="0" result="BackgroundImageFix"/>
<feBlend mode="normal" in="SourceGraphic" in2="BackgroundImageFix" result="shape"/>
<feGaussianBlur stdDeviation="5" result="effect1_foregroundBlur_3_18"/>
</filter>
<filter id="filter3_d_3_18" x="0.112" y="165.84" width="482.651" height="93.12" filterUnits="userSpaceOnUse" color-interpolation-filters="sRGB">
<feFlood flood-opacity="0" result="BackgroundImageFix"/>
<feColorMatrix in="SourceAlpha" type="matrix" values="0 0 0 0 0 0 0 0 0 0 0 0 0 0 0 0 0 0 127 0" result="hardAlpha"/>
<feOffset/>
<feGaussianBlur stdDeviation="6"/>
<feComposite in2="hardAlpha" operator="out"/>
<feColorMatrix type="matrix" values="0 0 0 0 1 0 0 0 0 1 0 0 0 0 1 0 0 0 1 0"/>
<feBlend mode="normal" in2="BackgroundImageFix" result="effect1_dropShadow_3_18"/>
<feBlend mode="normal" in="SourceGraphic" in2="effect1_dropShadow_3_18" result="shape"/>
</filter>
</defs>
</svg>
