<svg width="70" height="63" viewBox="0 0 70 63" fill="none" xmlns="http://www.w3.org/2000/svg">
<ellipse cx="34.9285" cy="31.652" rx="30.8768" ry="27.703" fill="white"/>
<ellipse cx="35" cy="31.5" rx="35" ry="31.5" fill="white"/>
<path d="M32.9218 1.08157C29.1292 1.26674 24.9038 2.19258 21.331 3.6122C18.5003 4.74172 15.752 6.26627 13.3817 8.03771C12.4679 8.71666 12.248 8.89566 11.025 9.99432C10.0769 10.8399 9.69898 11.2103 8.77144 12.1855C8.68899 12.2719 8.26301 12.7718 7.82328 13.2965C4.0032 17.8825 1.72214 23.2832 1.19997 28.974C1.01446 30.9985 1.13126 34.3748 1.44044 35.9487C1.48166 36.1339 1.57098 36.6215 1.64656 37.0288C1.97635 38.7509 2.59471 40.7137 3.46041 42.7382C3.8383 43.6208 4.94448 45.6638 5.57658 46.6576C6.16058 47.5649 7.48662 49.3363 8.20804 50.1758C10.7983 53.1508 13.9038 55.632 17.5247 57.6257C19.1049 58.496 21.5509 59.5576 23.1243 60.0576C25.3435 60.7674 26.9924 61.1871 28.6895 61.4648C28.9918 61.5142 29.4865 61.5883 29.7888 61.6253C30.0911 61.6623 30.4965 61.7241 30.682 61.7549C32.4546 62.0388 37.4977 62.0388 39.3734 61.7488C39.5795 61.7179 40.1704 61.6315 40.6788 61.5574C44.1828 61.0575 48.4701 59.7119 51.4176 58.175C51.7543 58.0022 52.036 57.8602 52.0497 57.8602C52.1322 57.8602 54.1178 56.6998 54.695 56.3172C54.8255 56.2246 55.1209 56.0332 55.3477 55.8789C57.2783 54.6074 59.4907 52.7187 61.1259 50.9411C63.7642 48.0772 65.8735 44.6886 67.1652 41.2445C67.9485 39.1459 68.3401 37.572 68.7592 34.776C68.931 33.6588 68.931 29.3505 68.7661 28.2334C68.3263 25.3509 67.9897 23.9807 67.1515 21.7525C65.8941 18.3886 63.9772 15.2469 61.4351 12.4015C61.2221 12.1608 61.0366 11.9571 61.016 11.9386C60.9953 11.9201 60.7824 11.6979 60.5419 11.4448C59.8823 10.7535 57.9242 9.0191 57.0516 8.34632C54.9079 6.71067 52.6887 5.38981 50.1603 4.24794C44.8012 1.83459 39.0642 0.785301 32.9218 1.08157ZM43.269 8.00685C42.582 8.6179 42.3415 9.19193 42.4789 9.93259C42.6163 10.698 43.166 11.451 44.9524 13.2841C45.9555 14.3211 46.3402 14.784 46.6563 15.3642C47.1166 16.1913 47.1578 16.7962 46.7868 17.4442C46.5944 17.7837 45.9486 18.3516 45.3921 18.6664C45.1447 18.8083 44.9386 18.9318 44.9386 18.9441C44.9386 18.9503 45.1035 18.9318 45.3028 18.9009C46.3883 18.7157 47.2609 19.0799 47.6594 19.8761C47.8243 20.2218 47.9273 20.2711 48.4289 20.2711C48.6969 20.2711 49.1984 20.4069 49.1984 20.481C49.1984 20.4933 49.0816 20.5427 48.9442 20.5859C48.6144 20.6785 47.9342 21.0365 47.5701 21.3081C47.1991 21.5735 46.6013 22.2339 46.2921 22.7092C45.9623 23.2153 45.5089 24.2461 45.3646 24.8078C45.3028 25.0608 45.2203 25.2707 45.186 25.2707C45.1516 25.2707 45.1447 24.9497 45.1653 24.5115C45.2409 23.203 45.5844 22.271 46.3334 21.3636C47.0891 20.4378 47.0342 19.8576 46.141 19.4194C45.9898 19.3453 45.77 19.3144 45.3508 19.3206C44.8355 19.3206 44.7119 19.3453 44.2859 19.5305C44.0248 19.6477 43.6675 19.8144 43.5026 19.9131C43.3309 20.0057 43.1591 20.086 43.1248 20.086C43.0354 20.086 43.4545 19.7465 43.7156 19.6045C44.0179 19.4441 44.0248 19.3268 43.7156 19.4441C42.74 19.8144 42.6507 19.802 43.1248 19.3391C43.9011 18.5923 44.1828 18.0121 44.1828 17.1665C44.1828 16.1542 43.8874 15.5432 42.4789 13.6421C41.3933 12.1855 41.1666 11.809 40.9124 11.1053C40.83 10.8708 40.7338 10.6671 40.6925 10.6548C40.617 10.6362 40.0398 11.2473 39.8749 11.525C39.71 11.809 39.6826 12.3583 39.8062 12.7471C40.0123 13.3705 40.3971 13.8582 41.9224 15.4321C42.6369 16.1604 43.1179 16.7962 43.2347 17.148C43.3652 17.5307 43.3446 18.1602 43.1935 18.4195C42.9186 18.8885 42.2865 19.3576 41.3521 19.7835C40.7956 20.0366 39.9711 20.339 39.9368 20.302C39.9162 20.2897 40.0536 20.1292 40.2322 19.9502C40.9193 19.2651 41.1735 18.4195 40.9193 17.6418C40.7406 17.0863 40.4658 16.648 39.4833 15.3395C38.9817 14.6729 38.5145 14.0001 38.4458 13.8335C38.3771 13.673 38.2878 13.5434 38.2397 13.5434C38.116 13.5434 37.7931 13.8952 37.6694 14.1606C37.5389 14.4445 37.5939 15.0432 37.7794 15.3704C37.9649 15.6975 38.4321 16.2468 39.0298 16.8455C39.9436 17.759 40.3353 18.3639 40.3353 18.87C40.3353 19.549 39.7032 20.1045 38.3359 20.6106C38.0267 20.7279 37.7588 20.8143 37.745 20.8081C37.7382 20.7958 37.8343 20.6723 37.9649 20.5365C38.0954 20.3946 38.2878 20.1353 38.384 19.9625C38.542 19.6724 38.5626 19.586 38.5352 19.1601C38.4939 18.5738 38.2672 18.1355 37.4015 17.0369C37.0786 16.6233 36.735 16.1419 36.6457 15.9691C36.1716 15.0432 36.4808 14.3272 37.642 13.6853C37.9374 13.5249 38.1779 13.3891 38.1916 13.3829C38.1985 13.3767 38.2191 13.1854 38.2328 12.9508C38.2672 12.1793 38.6726 11.6485 39.7375 11.0004C39.9574 10.8646 40.2734 10.698 40.4452 10.6362C40.7544 10.5128 40.7612 10.4943 40.8506 10.0005C40.988 9.24747 41.8606 8.43274 43.1935 7.79699C43.4065 7.69823 43.5988 7.63034 43.6194 7.64268C43.6332 7.6612 43.482 7.82168 43.269 8.00685ZM22.2379 9.5746C21.8875 10.7905 22.1349 11.9633 22.9387 12.9385C24.0174 14.247 25.7351 15.1914 30.2354 16.969C34.1517 18.5182 35.5876 19.2589 36.7969 20.3576C37.5183 21.0118 37.8756 21.5118 38.0954 22.1722C38.5558 23.5918 37.9786 25.3077 36.3709 27.289C35.8762 27.9062 35.7525 28.0235 35.6976 27.9741C35.677 27.9618 35.6976 27.7025 35.7388 27.3939C35.8212 26.7335 35.7182 25.6966 35.5121 25.1225C35.0723 23.8881 34.1173 22.703 32.8119 21.7587C32.008 21.1846 31.8156 21.0612 30.8194 20.4872C29.9125 19.9687 29.4934 19.7465 28.449 19.2342C28.2017 19.1169 27.6451 18.8392 27.2123 18.617C26.7794 18.3948 26.3329 18.1726 26.216 18.1232C24.9587 17.543 22.8769 16.1851 22.341 15.5987C22.1761 15.4197 22.1143 15.3827 22.0456 15.4444C21.9288 15.5494 21.8875 16.5925 21.9906 17.0245C22.128 17.6356 22.5609 18.3022 23.1517 18.8207C24.1961 19.7403 25.158 20.2526 27.7619 21.2896C31.0324 22.5919 31.5889 22.8326 32.5027 23.3758C33.8906 24.1967 34.557 24.9806 34.7769 26.0607C34.9212 26.7582 34.5776 27.8939 33.9249 28.8691C33.4852 29.5295 32.7844 30.3937 32.6951 30.3937C32.6539 30.3937 32.647 30.2764 32.6813 30.0665C32.7569 29.5727 32.7226 28.8074 32.5989 28.3259C32.1454 26.6162 30.7095 25.3386 27.4528 23.7461C26.965 23.5054 26.0649 23.0672 25.4603 22.7709C24.3816 22.2463 23.0487 21.4871 22.6502 21.1723C22.3204 20.9131 22.2654 20.9501 22.2654 21.4624C22.2654 22.0117 22.4097 22.4746 22.7051 22.8944C23.3441 23.7893 24.464 24.4374 27.2192 25.5176C29.6651 26.4804 30.6614 26.9989 31.3278 27.647C32.3516 28.6531 32.3378 29.832 31.2866 31.3195C30.9912 31.7269 30.5652 32.2453 30.5102 32.2453C30.4896 32.2453 30.4759 31.9182 30.4759 31.517C30.4759 30.6714 30.3247 30.19 29.8919 29.6098C29.2185 28.7148 28.2498 28.0482 26.1817 27.0545C23.2823 25.6595 22.4853 25.1472 21.8738 24.2708C21.2829 23.4375 21.2967 22.4438 21.9013 21.2525L22.1486 20.7587L21.9425 20.5612C20.6508 19.3268 20.5065 17.7158 21.5165 15.858C21.702 15.5123 21.8532 15.1975 21.8532 15.1543C21.8532 15.1111 21.7982 15 21.7226 14.9136C21.489 14.6112 21.1799 14.0001 21.0699 13.6236C20.9325 13.1422 20.9256 12.0991 21.0631 11.5682C21.1799 11.1115 21.5234 10.3091 21.7639 9.91408C22.341 8.96972 22.4303 8.908 22.2379 9.5746ZM45.8799 20.0366C45.9142 20.2156 45.928 20.4008 45.9142 20.4378C45.8387 20.6476 45.2821 20.4131 45.2821 20.1724C45.2821 19.9872 45.5089 19.7156 45.6669 19.7156C45.7974 19.7156 45.8318 19.765 45.8799 20.0366ZM42.9736 20.2341C42.9049 20.2835 42.8293 20.3082 42.8087 20.2958C42.7743 20.2588 42.953 20.1477 43.0423 20.1477C43.0835 20.1477 43.0492 20.1847 42.9736 20.2341ZM48.4839 30.6837C49.7137 32.2021 51.0947 33.9057 51.1909 34.0353C51.2459 34.1094 51.5825 34.5167 51.9329 34.9488C52.2833 35.3808 52.7025 35.8993 52.8674 36.103C53.0254 36.3067 53.4101 36.7881 53.7262 37.177C54.0354 37.5658 54.2621 37.9053 54.2346 37.93C54.2071 37.9547 53.4239 38.0781 52.4963 38.1954C43.6881 39.3434 37.745 41.7074 35.4227 44.9849L35.1617 45.3552L35.0174 45.2009C34.9349 45.1145 34.7632 44.9232 34.6326 44.7689C33.8287 43.8492 32.4203 42.7444 31.0599 41.9666C30.4209 41.6025 28.8887 40.8803 28.2566 40.6458C25.5702 39.6582 22.4647 38.899 18.2117 38.2077C15.8276 37.8189 15.9101 37.8374 15.9169 37.7263C15.9238 37.6707 16.0681 37.4609 16.233 37.2634C16.5422 36.9054 17.7377 35.4611 19.8332 32.9243C20.431 32.196 21.2211 31.2454 21.5784 30.8072C22.0387 30.2517 22.2654 30.0233 22.3685 30.0233C22.4441 30.0233 22.8357 30.085 23.2479 30.1529C23.7632 30.2455 23.9831 30.3134 23.9831 30.3751C23.9831 30.4183 23.6052 30.9121 23.1449 31.4615C20.9256 34.1032 19.6202 35.7141 19.6202 35.8006C19.6202 35.9178 19.8813 36.0042 20.8569 36.2203C21.2348 36.3005 21.8051 36.4363 22.128 36.5227C23.2411 36.819 24.2923 37.1091 24.6014 37.214C24.7732 37.2696 25.1167 37.3807 25.3641 37.4547C25.9 37.6275 27.4115 38.1954 27.7826 38.3682C27.9337 38.4361 28.0643 38.4731 28.0849 38.4546C28.1879 38.3682 27.2741 36.7079 26.642 35.8129C26.0305 34.955 25.5977 34.4427 25.0961 33.9612C24.8282 33.7082 24.732 33.5724 24.7526 33.4674C24.7801 33.3008 24.732 33.307 27.6245 33.3872C29.3078 33.4366 30.3934 33.381 31.3897 33.1959C33.3478 32.8317 34.8044 32.1466 35.6289 31.2022C35.78 31.0294 35.9174 30.9183 35.9312 30.9553C35.9449 30.9924 35.835 31.2331 35.6976 31.4923C35.5052 31.8318 35.2991 32.0849 34.9143 32.4243C34.0692 33.1835 33.0592 33.6341 31.6645 33.881C30.4759 34.0908 30.3041 34.1402 30.3041 34.2822C30.3041 34.4735 30.7644 34.5476 31.7538 34.5106C32.2348 34.4982 32.6607 34.5044 32.7088 34.5291C32.7844 34.5723 32.0424 34.8871 31.5408 35.029C30.3522 35.3623 29.3559 35.7203 29.2254 35.8561C28.8406 36.2511 29.191 37.1893 30.0636 38.0781C30.1598 38.1769 30.3041 38.325 30.3797 38.3991C30.4484 38.4793 30.5858 38.541 30.6751 38.541C30.9843 38.541 32.1454 38.1337 32.7088 37.8251C34.4265 36.8992 36.261 34.9303 37.003 33.2267C37.3328 32.4737 37.6007 32.3441 38.9611 32.2515C40.9811 32.1157 42.1216 31.7269 43.853 30.585C44.066 30.443 44.0798 30.5603 43.8668 30.8072C43.2759 31.5232 42.0117 32.3441 40.9193 32.7268C40.2459 32.9613 40.0742 33.0045 39.1879 33.1959C38.2947 33.3872 37.8893 33.6279 37.374 34.2698C35.6082 36.461 33.2516 38.4855 31.2591 39.5348C30.998 39.6706 30.785 39.8002 30.785 39.831C30.785 39.8557 30.9774 40.0039 31.2179 40.1582C32.1317 40.7692 33.0317 41.5222 33.6364 42.1827C34.0692 42.6579 34.6532 43.4418 34.8868 43.8554C35.0517 44.164 35.1891 44.2874 35.2304 44.1763C35.2991 43.9973 35.9999 42.9604 36.3365 42.5592C37.216 41.4729 39.0161 40.0718 40.5895 39.2262C42.9599 37.9608 46.1685 36.8745 49.6862 36.1339C50.2015 36.0228 50.6619 35.9117 50.71 35.887C50.7993 35.8376 50.7718 35.7944 49.6175 34.4673C49.3427 34.1464 49.0541 33.8131 48.9854 33.7267C48.7381 33.4366 47.2678 31.7207 47.1853 31.6281C46.5738 30.9306 46.0379 30.2579 46.0654 30.2208C46.086 30.19 46.3746 30.1344 46.7044 30.0912C47.0342 30.048 47.3433 29.9986 47.3777 29.9925C47.4189 29.9801 47.5495 29.9678 47.6731 29.9678C47.8793 29.9616 47.9342 30.011 48.4839 30.6837ZM16.8032 38.4238C18.8576 38.6953 21.9906 39.3249 23.5708 39.7817C24.9587 40.1829 26.6214 40.7137 27.1092 40.9174C27.226 40.9606 27.4803 41.0593 27.6795 41.1272C28.291 41.3432 30.1667 42.2012 30.9293 42.6147C32.5233 43.485 34.0211 44.6022 34.667 45.4169C34.8181 45.6021 34.9761 45.7688 35.0242 45.7873C35.0723 45.8058 35.2647 45.6021 35.4846 45.312C37.216 42.9666 42.3484 40.7075 49.4389 39.1583C50.7237 38.8743 53.3208 38.4114 54.1178 38.325L54.4682 38.2818L55.2927 39.2632C56.7561 40.9914 57.031 41.3371 56.9966 41.3803C56.9829 41.405 56.1515 41.442 55.1622 41.4605C51.3283 41.5469 48.2503 41.837 45.1447 42.4049C41.9018 42.9974 39.6207 43.6887 37.5526 44.7071C36.9893 44.9849 36.1235 45.5219 36.1716 45.5589C36.1854 45.5774 36.5014 45.4478 36.8725 45.2812C40.3696 43.7072 44.0935 42.6765 48.1678 42.1456C49.3496 41.9975 51.768 41.8185 52.9361 41.8L54.0285 41.7815L55.224 43.3245C56.2477 44.6392 56.3989 44.8676 56.2821 44.8861C56.2065 44.8985 55.595 44.8059 54.9217 44.6886C52.8742 44.3245 52.0566 44.2072 50.5382 44.0714C45.7562 43.627 41.3521 44.2319 35.7113 46.0959L35.0449 46.3181L34.7494 46.2008C33.1623 45.5651 30.6408 44.8614 28.7925 44.5405C26.8894 44.2072 26.2092 44.1331 24.0655 44.022C21.331 43.8862 17.8957 44.1455 14.9138 44.7195C14.1099 44.8738 13.7458 44.9232 13.7458 44.88C13.7458 44.8429 15.0993 42.8431 15.7177 41.9728L15.8894 41.7321L17.4834 41.7691C19.0912 41.8062 21.1661 41.9728 22.2517 42.158C26.1886 42.7999 28.5589 43.5035 33.3272 45.4478C33.8356 45.6577 34.2822 45.8181 34.3097 45.8058C34.3853 45.7873 33.2379 45.059 32.6058 44.7318C30.6957 43.7381 28.3941 42.9542 25.7008 42.374C24.7732 42.1765 22.8769 41.8617 21.7158 41.7198C21.1318 41.6457 18.6377 41.4358 17.7308 41.3803C17.1811 41.3494 15.9375 41.3186 14.9688 41.3124C13.9931 41.3124 13.1824 41.2815 13.1618 41.2507C13.1412 41.2198 13.258 41.0346 13.4297 40.8433C13.6015 40.6458 14 40.1952 14.3092 39.8372C14.6252 39.4792 15.0306 39.0101 15.223 38.7879C15.4085 38.5657 15.594 38.3682 15.6352 38.3435C15.7039 38.2941 15.9307 38.3127 16.8032 38.4238ZM27.5077 47.4353C27.9543 47.497 28.8132 47.7501 28.9506 47.855C29.0124 47.9105 28.7445 48.9166 28.6414 49.003C28.5933 49.0462 28.5452 49.0215 28.4902 48.9413C28.3047 48.6389 27.7688 48.2438 27.4184 48.1389C26.9169 47.9908 25.9893 48.034 25.5771 48.2253C24.9862 48.4969 24.574 48.966 24.3678 49.5956C24.2373 49.9844 24.2167 51.2127 24.3335 51.6941C24.519 52.4595 24.9862 53.0705 25.6114 53.3545C25.9069 53.4903 26.0305 53.5088 26.7313 53.5088C27.4528 53.5088 27.5558 53.4964 27.9337 53.336C28.1604 53.2434 28.449 53.0767 28.5658 52.9718C28.6895 52.8607 28.8132 52.7928 28.8406 52.8175C28.8613 52.8422 28.8406 53.0767 28.7857 53.336C28.6895 53.805 28.6826 53.8174 28.4215 53.9285C27.6658 54.2495 26.2229 54.3667 25.2404 54.1816C24.5396 54.0519 24.2304 53.9408 23.7426 53.6322C22.8838 53.0891 22.4097 52.2805 22.2998 51.1633C22.1486 49.6881 22.8906 48.3858 24.2236 47.7809C24.6427 47.5958 24.8557 47.5402 25.5977 47.4044C25.8931 47.355 27.0405 47.3735 27.5077 47.4353ZM34.2204 47.9105V48.3302H33.0386L31.85 48.3241V49.2746V50.2251L32.7432 50.2066C33.2379 50.1943 33.7463 50.1881 33.8768 50.1819L34.1173 50.1758V50.6078V51.0399L32.9699 51.0152C31.9256 50.9967 31.8294 51.0028 31.8019 51.1016C31.795 51.1633 31.795 51.688 31.8156 52.2682L31.85 53.3236H32.2966C32.5439 53.3236 33.0661 53.3113 33.4646 53.2928L34.186 53.2619V53.6939V54.126L32.063 54.1075C30.8881 54.1013 29.9125 54.0766 29.8919 54.0519C29.8644 54.0211 29.8712 53.7804 29.8987 53.5088C29.9674 52.8483 29.9674 48.7747 29.8987 48.108C29.8644 47.818 29.8506 47.5649 29.8712 47.534C29.885 47.5093 30.8744 47.4908 32.063 47.4908H34.2204V47.9105ZM37.5664 48.3056C37.9718 48.75 38.384 49.2005 38.4802 49.3055C38.9817 49.8733 40.8231 51.688 40.8987 51.688C40.9261 51.688 40.9536 50.7436 40.9536 49.5894V47.4908H41.5033H42.0598L42.0048 48.3364C41.9705 48.8055 41.9499 50.293 41.9499 51.6386V54.0951H41.2972L40.6444 54.089L40.2734 53.6631C39.8474 53.1631 39.1604 52.4225 38.6863 51.9349C38.5008 51.7497 38.2947 51.5337 38.226 51.4658C37.5801 50.793 36.5908 49.8363 36.5427 49.8363C36.5152 49.8363 36.4877 50.793 36.4877 51.9657V54.0951H35.9312H35.3678L35.409 53.7372C35.4983 53.0212 35.5327 49.9536 35.4708 48.787C35.4365 48.1266 35.4159 47.5649 35.4365 47.534C35.4502 47.5093 35.7731 47.4908 36.1442 47.4908H36.8244L37.5664 48.3056ZM47.8243 47.9105V48.3302L46.6425 48.3241H45.4539L45.4333 49.2561C45.4196 49.9721 45.4333 50.2004 45.502 50.219C45.5501 50.2313 46.0585 50.2251 46.6219 50.2004C47.1922 50.1819 47.68 50.1819 47.7075 50.2066C47.735 50.2313 47.7556 50.4288 47.7418 50.6448L47.7212 51.0399L46.5738 51.0152L45.4196 50.9967V52.1077C45.4196 52.9965 45.4402 53.231 45.5157 53.2866C45.5913 53.3483 45.8661 53.3483 46.67 53.2989C47.2472 53.2681 47.7487 53.2619 47.7762 53.2866C47.8037 53.3174 47.8243 53.515 47.8105 53.7248L47.7899 54.1198L45.66 54.1075L43.5301 54.0951L43.5645 53.2187C43.6126 51.9287 43.6057 49.5153 43.5507 48.429L43.4958 47.4908H45.66H47.8243V47.9105Z" fill="black"/>
</svg>
